<?xml version="1.0" encoding="UTF-8"?>
<svg id="_레이어_2" data-name="레이어 2" xmlns="http://www.w3.org/2000/svg" viewBox="0 0 493.02 84.19">
  <defs>
    <style>
      .cls-1 {
        fill: #fff;
      }
    </style>
  </defs>
  <g id="_레이어_1-2" data-name="레이어 1">
    <g>
      <path class="cls-1" d="M444.78,45.61h-2.65c-3.31,0-6-2.69-6-6v-18.98h-8.2v21.38c0,5.52,4.48,10,10,10h11.05c5.52,0,10-4.48,10-10v-21.38h-8.2v18.98c0,3.31-2.69,6-6,6Z"/>
      <path class="cls-1" d="M299.76,20.63v6.4h15.66c2.21,0,4,1.79,4,4v1.93h-12.76c-5.07,0-9.49,3.82-9.82,8.88-.36,5.55,4.03,10.17,9.5,10.17h21.29s0-21.38,0-21.38c0-5.52-4.48-10-10-10h-17.86ZM306.34,46.02c-1.95,0-3.54-1.58-3.54-3.54s1.59-3.53,3.54-3.53h13.09v7.07h-13.09Z"/>
      <path class="cls-1" d="M491.92,38.23c-1.57-2.96-4.7-4.99-8.29-4.99h-9.72c-1.79,0-3.23-1.45-3.23-3.23s1.44-3.23,3.23-3.23h18.01v-6.16h-18.01c-5.19,0-9.39,4.2-9.39,9.39s4.2,9.38,9.39,9.38h9.72c1.79,0,3.23,1.45,3.23,3.23s-1.44,3.23-3.23,3.23h-18.01v6.15h18.01c5.19,0,9.39-4.19,9.39-9.38,0-1.59-.4-3.09-1.1-4.39Z"/>
      <path class="cls-1" d="M252.26,28.4c0,13.04,10.57,23.61,23.6,23.61h16.18v-8.43h-16.18c-8.38,0-15.18-6.8-15.18-15.18s6.8-15.18,15.18-15.18h16.18V4.8h-16.18c-13.03,0-23.6,10.56-23.6,23.6Z"/>
      <path class="cls-1" d="M406.31,19.83h-2.35c-7.73,0-14,6.27-14,14v29.39h8.18v-12.86c2.81,1.63,6.17,2.45,9.7,2.12,8.13-.75,14.58-7.64,14.82-15.8.27-9.25-7.15-16.85-16.35-16.85ZM406.31,45.36c-.26,0-.51-.01-.76-.03-4.25-.35-7.41-4.12-7.41-8.38v-1.51c0-4.26,3.16-8.03,7.41-8.38.25-.02.5-.03.76-.03,5.07,0,9.17,4.1,9.17,9.16s-4.1,9.17-9.17,9.17Z"/>
      <path class="cls-1" d="M334.31,30.63v21.38h8.2v-20.98c0-2.21,1.79-4,4-4h4.29c2.21,0,4,1.79,4,4v20.98s8.2,0,8.2,0v-20.98c0-2.21,1.79-4,4-4h4.29c2.21,0,4,1.79,4,4v20.98h8.2v-21.38c0-5.52-4.48-10-10-10h-9.48c-1.86,0-3.66.63-5.11,1.79h0s0,0,0,0c-1.45-1.16-3.26-1.79-5.11-1.79h-9.48c-5.52,0-10,4.48-10,10Z"/>
    </g>
    <g>
      <path class="cls-1" d="M35.07,46.45l-1.65,3.27c-.39.78-.98,1.41-1.7,1.85-.72.43-1.55.68-2.42.68-1.74,0-3.34-.98-4.13-2.53l-1.65-3.26,5.78-11.41,5.77,11.4Z"/>
      <polygon class="cls-1" points="29.3 35.05 23.52 46.46 0 0 11.55 0 29.3 35.05"/>
      <polygon class="cls-1" points="58.6 0 35.07 46.45 29.3 35.05 47.04 0 58.6 0"/>
    </g>
    <path class="cls-1" d="M202.61,2.54l-25.17,49.71h11.55s17.74-35.04,17.74-35.04l17.74,35.04h11.55S210.86,2.54,210.86,2.54c-.79-1.56-2.38-2.54-4.13-2.54h0c-1.74,0-3.34.98-4.13,2.54Z"/>
    <polygon class="cls-1" points="213.25 41.47 206.73 28.6 206.73 28.6 200.22 41.47 213.25 41.47"/>
    <path class="cls-1" d="M87.73,9.17c-9.36,0-16.95,7.59-16.95,16.96s7.59,16.95,16.95,16.95,16.96-7.59,16.96-16.95c0-1.52-.2-2.99-.57-4.39l8.84-2.38c.58,2.16.89,4.43.89,6.77,0,14.43-11.69,26.12-26.12,26.12s-26.12-11.69-26.12-26.12S73.3,0,87.73,0v9.17Z"/>
    <path class="cls-1" d="M149.21,0h-21.06c-2.21,0-4,1.79-4,4v5.67h25.14c8.79,0,16.36,6.75,16.77,15.53.44,9.38-7.03,17.14-16.31,17.14h-15.94v-25.77h-9.66v35.43h25.6c14.6,0,26.39-12.04,25.99-26.73S163.38,0,149.21,0Z"/>
    <g>
      <rect class="cls-1" x="92.95" y="0" width="4.22" height="4.22"/>
      <rect class="cls-1" x="98.91" y="4.55" width="4.22" height="4.22"/>
      <rect class="cls-1" x="92.95" y="9.1" width="4.22" height="4.22"/>
      <rect class="cls-1" x="104.87" y="9.1" width="4.22" height="4.22"/>
      <rect class="cls-1" x="98.91" y="13.64" width="4.22" height="4.22"/>
      <rect class="cls-1" x="104.87" y="0" width="4.22" height="4.22"/>
    </g>
    <g>
      <path class="cls-1" d="M167.68,84h-2.35l-5.14-12.44h2.58l3.82,9.35,3.86-9.35h2.37l-5.14,12.44Z"/>
      <path class="cls-1" d="M181.73,75.38c.72.68,1.08,1.7,1.08,3.07v5.55h-2.15v-1.3c-.25.46-.62.81-1.1,1.06s-1.07.36-1.74.36c-1.03,0-1.85-.26-2.45-.79s-.91-1.21-.91-2.05.31-1.55.92-2.05c.62-.5,1.57-.76,2.86-.76h2.28c0-.4-.06-.73-.18-.98-.26-.81-.93-1.21-2.01-1.21-.51,0-1,.09-1.48.26-.48.17-.89.4-1.24.68l-.83-1.67c.49-.38,1.07-.67,1.75-.88.68-.21,1.38-.31,2.11-.31,1.35,0,2.38.34,3.1,1.02ZM179.69,82.11c.38-.25.65-.61.82-1.08v-1.14h-2.03c-1.2,0-1.8.43-1.8,1.28,0,.4.15.72.44.96.3.24.71.36,1.23.36s.95-.12,1.33-.37Z"/>
      <path class="cls-1" d="M189.54,70.81v13.19h-2.31v-13.19h2.31Z"/>
      <path class="cls-1" d="M203.25,84h-2.17v-1.32c-.33.46-.75.82-1.25,1.07-.5.25-1.06.37-1.66.37-1.19,0-2.12-.36-2.81-1.07-.69-.71-1.03-1.77-1.03-3.16v-5.4h2.29v5.07c0,.83.17,1.45.52,1.87s.85.62,1.5.62c.71,0,1.28-.24,1.7-.72.42-.48.63-1.17.63-2.07v-4.76h2.28v9.51Z"/>
      <path class="cls-1" d="M216.65,79.91h-7c.11.7.42,1.25.92,1.66.51.41,1.14.61,1.9.61.96,0,1.75-.33,2.38-1l1.23,1.39c-.87,1.03-2.09,1.55-3.68,1.55-1,0-1.88-.21-2.65-.63-.77-.42-1.37-1-1.79-1.74-.42-.74-.63-1.58-.63-2.52s.21-1.76.61-2.5c.41-.74.97-1.32,1.7-1.74.72-.42,1.53-.63,2.42-.63s1.67.2,2.37.6c.71.4,1.26.97,1.66,1.71.4.73.6,1.59.6,2.58,0,.05-.02.27-.05.66ZM210.42,76.82c-.44.42-.71.98-.79,1.66h4.91c-.09-.69-.36-1.24-.8-1.66-.44-.42-.99-.63-1.65-.63s-1.22.21-1.66.63Z"/>
      <path class="cls-1" d="M229.33,83.36c-.97-.56-1.74-1.32-2.29-2.3-.56-.98-.83-2.07-.83-3.28s.28-2.3.83-3.28c.56-.98,1.32-1.74,2.29-2.3.97-.56,2.06-.84,3.27-.84s2.3.28,3.28.84c.98.56,1.75,1.32,2.3,2.29.56.97.83,2.07.83,3.29s-.28,2.32-.83,3.29c-.56.97-1.33,1.74-2.3,2.29-.98.56-2.07.84-3.28.84s-2.3-.28-3.27-.84ZM234.65,81.5c.61-.36,1.09-.87,1.44-1.51.35-.65.52-1.38.52-2.21s-.18-1.57-.52-2.22c-.35-.65-.83-1.16-1.44-1.52-.61-.36-1.29-.54-2.05-.54s-1.42.18-2.04.54c-.61.36-1.09.87-1.44,1.52s-.52,1.39-.52,2.22.17,1.57.52,2.21.83,1.15,1.43,1.51c.6.36,1.29.54,2.04.54s1.44-.18,2.05-.54Z"/>
      <path class="cls-1" d="M246.06,74.06v.6h2.42v1.87h-2.36v7.47h-2.29v-7.47h-1.44v-1.87h1.44v-.62c0-1.03.29-1.85.87-2.45.58-.6,1.39-.91,2.44-.91.39,0,.76.04,1.1.13s.63.22.85.4l-.62,1.74c-.32-.25-.69-.37-1.12-.37-.85,0-1.28.49-1.28,1.48Z"/>
      <path class="cls-1" d="M266.81,72.33c.98.52,1.74,1.24,2.28,2.19s.82,2.03.82,3.26-.27,2.32-.82,3.26-1.31,1.67-2.28,2.19-2.11.77-3.39.77h-5.23v-12.44h5.23c1.28,0,2.41.26,3.39.77ZM265.51,81.42c.63-.34,1.12-.83,1.47-1.46.34-.63.52-1.36.52-2.19s-.17-1.58-.52-2.2c-.34-.63-.83-1.11-1.47-1.45s-1.37-.51-2.21-.51h-2.74v8.32h2.74c.84,0,1.58-.17,2.21-.52Z"/>
      <path class="cls-1" d="M280.72,75.38c.72.68,1.08,1.7,1.08,3.07v5.55h-2.15v-1.3c-.25.46-.62.81-1.1,1.06s-1.07.36-1.74.36c-1.03,0-1.85-.26-2.45-.79s-.91-1.21-.91-2.05.31-1.55.92-2.05c.62-.5,1.57-.76,2.86-.76h2.28c0-.4-.06-.73-.18-.98-.26-.81-.93-1.21-2.01-1.21-.51,0-1,.09-1.48.26-.48.17-.89.4-1.24.68l-.83-1.67c.49-.38,1.07-.67,1.75-.88.68-.21,1.38-.31,2.11-.31,1.35,0,2.38.34,3.1,1.02ZM278.68,82.11c.38-.25.65-.61.82-1.08v-1.14h-2.03c-1.2,0-1.8.43-1.8,1.28,0,.4.15.72.44.96.3.24.71.36,1.23.36s.95-.12,1.33-.37Z"/>
      <path class="cls-1" d="M291.23,83.97c-.37.1-.75.15-1.16.15-1.02,0-1.81-.28-2.37-.84-.56-.56-.83-1.36-.83-2.42v-4.34h-1.44v-1.87h1.44v-2.28h2.29v2.28h2.36v1.87h-2.36v4.3c0,.44.11.78.32,1.01.21.24.52.36.91.36.43,0,.8-.13,1.12-.39l.64,1.71c-.25.2-.56.35-.92.45Z"/>
      <path class="cls-1" d="M302.3,75.38c.72.68,1.08,1.7,1.08,3.07v5.55h-2.15v-1.3c-.25.46-.62.81-1.1,1.06s-1.07.36-1.74.36c-1.03,0-1.85-.26-2.45-.79s-.91-1.21-.91-2.05.31-1.55.92-2.05c.62-.5,1.57-.76,2.86-.76h2.28c0-.4-.06-.73-.18-.98-.26-.81-.93-1.21-2.01-1.21-.51,0-1,.09-1.48.26-.48.17-.89.4-1.24.68l-.83-1.67c.49-.38,1.07-.67,1.75-.88.68-.21,1.38-.31,2.11-.31,1.35,0,2.38.34,3.1,1.02ZM300.26,82.11c.38-.25.65-.61.82-1.08v-1.14h-2.03c-1.2,0-1.8.43-1.8,1.28,0,.4.15.72.44.96.3.24.71.36,1.23.36s.95-.12,1.33-.37Z"/>
      <path class="cls-1" d="M316.3,81.17l-1.14,2.83h-2.44l5.3-12.44h2.35l5.32,12.44h-2.49l-1.14-2.83h-5.76ZM319.19,74.02l-2.13,5.23h4.23l-2.1-5.23Z"/>
      <path class="cls-1" d="M331.51,71.55v12.44h-2.38v-12.44h2.38Z"/>
    </g>
    <path class="cls-1" d="M141.34,79.39h-65.24c-.28,0-.5-.22-.5-.5s.22-.5.5-.5h65.24c.28,0,.5.22.5.5s-.22.5-.5.5Z"/>
    <path class="cls-1" d="M416.92,79.39h-65.24c-.28,0-.5-.22-.5-.5s.22-.5.5-.5h65.24c.28,0,.5.22.5.5s-.22.5-.5.5Z"/>
  </g>
</svg>